<svg xmlns="http://www.w3.org/2000/svg" viewBox="0 0 160 160"><rect width="160" height="160" rx="24" fill="#e9f7f9"/><g fill="#9dd4dd" stroke="#478593" stroke-width="4" stroke-linecap="round" stroke-linejoin="round"><path d="m31 41 92 13 9 70-92-14Z"/><path d="m46 55 62 10 7 42-62-9ZM31 41l-10-2M33 57l-10-2M35 74l-10-2M37 93l-10-2M132 124l10 2M130 107l10 2M128 89l10 2M126 72l10 2"/></g><circle cx="128" cy="123" r="23" fill="#e9f7f9"/><g fill="#9dd4dd" stroke="#478593" stroke-width="3" stroke-linecap="round" stroke-linejoin="round"><path d="M130 107q-17 21 0 26 17-5 0-26Z"/></g></svg>
